<mxfile host="65bd71144e">
    <diagram id="VIQ8q-x1R4JJPylVBnPT" name="Page-1">
        <mxGraphModel dx="972" dy="629" grid="1" gridSize="10" guides="1" tooltips="1" connect="1" arrows="1" fold="1" page="1" pageScale="1" pageWidth="850" pageHeight="1100" math="0" shadow="0">
            <root>
                <mxCell id="0"/>
                <mxCell id="1" parent="0"/>
                <mxCell id="35" value="" style="group" vertex="1" connectable="0" parent="1">
                    <mxGeometry x="75" y="33" width="630" height="587" as="geometry"/>
                </mxCell>
                <mxCell id="29" value="" style="rounded=1;whiteSpace=wrap;html=1;fillColor=#fff2cc;strokeColor=#d6b656;" vertex="1" parent="35">
                    <mxGeometry y="372" width="630" height="145" as="geometry"/>
                </mxCell>
                <mxCell id="3" value="" style="rounded=1;whiteSpace=wrap;html=1;fillColor=#fff2cc;strokeColor=#d6b656;" vertex="1" parent="35">
                    <mxGeometry x="240" y="127" width="150" height="200" as="geometry"/>
                </mxCell>
                <mxCell id="4" value="Block 1" style="rounded=1;whiteSpace=wrap;html=1;fillColor=#e1d5e7;strokeColor=#9673a6;" vertex="1" parent="35">
                    <mxGeometry x="255" y="167" width="120" height="20" as="geometry"/>
                </mxCell>
                <mxCell id="5" value="Block 2" style="rounded=1;whiteSpace=wrap;html=1;fillColor=#e1d5e7;strokeColor=#9673a6;" vertex="1" parent="35">
                    <mxGeometry x="255" y="207" width="120" height="20" as="geometry"/>
                </mxCell>
                <mxCell id="8" style="edgeStyle=none;html=1;exitX=0.5;exitY=1;exitDx=0;exitDy=0;entryX=0.5;entryY=0;entryDx=0;entryDy=0;" edge="1" parent="35" source="4" target="5">
                    <mxGeometry relative="1" as="geometry"/>
                </mxCell>
                <mxCell id="6" value="..." style="rounded=1;whiteSpace=wrap;html=1;fillColor=#e1d5e7;strokeColor=#9673a6;" vertex="1" parent="35">
                    <mxGeometry x="255" y="247" width="120" height="20" as="geometry"/>
                </mxCell>
                <mxCell id="9" style="edgeStyle=none;html=1;exitX=0.5;exitY=1;exitDx=0;exitDy=0;entryX=0.5;entryY=0;entryDx=0;entryDy=0;" edge="1" parent="35" source="5" target="6">
                    <mxGeometry relative="1" as="geometry"/>
                </mxCell>
                <mxCell id="7" value="Block n" style="rounded=1;whiteSpace=wrap;html=1;fillColor=#e1d5e7;strokeColor=#9673a6;" vertex="1" parent="35">
                    <mxGeometry x="255" y="287" width="120" height="20" as="geometry"/>
                </mxCell>
                <mxCell id="10" style="edgeStyle=none;html=1;exitX=0.5;exitY=1;exitDx=0;exitDy=0;entryX=0.5;entryY=0;entryDx=0;entryDy=0;" edge="1" parent="35" source="6" target="7">
                    <mxGeometry relative="1" as="geometry"/>
                </mxCell>
                <mxCell id="15" value="" style="group" vertex="1" connectable="0" parent="35">
                    <mxGeometry x="259" width="96" height="97" as="geometry"/>
                </mxCell>
                <mxCell id="2" value="Image" style="whiteSpace=wrap;html=1;aspect=fixed;" vertex="1" parent="15">
                    <mxGeometry x="16" y="17" width="80" height="80" as="geometry"/>
                </mxCell>
                <mxCell id="12" value="Image" style="whiteSpace=wrap;html=1;aspect=fixed;" vertex="1" parent="15">
                    <mxGeometry x="9" y="10" width="80" height="80" as="geometry"/>
                </mxCell>
                <mxCell id="13" value="Image" style="whiteSpace=wrap;html=1;aspect=fixed;" vertex="1" parent="15">
                    <mxGeometry width="80" height="80" as="geometry"/>
                </mxCell>
                <mxCell id="16" value="" style="rounded=1;whiteSpace=wrap;html=1;fillColor=#d5e8d4;strokeColor=#82b366;" vertex="1" parent="35">
                    <mxGeometry x="5" y="387" width="120" height="90" as="geometry"/>
                </mxCell>
                <mxCell id="17" value="" style="rounded=1;whiteSpace=wrap;html=1;fillColor=#d5e8d4;strokeColor=#82b366;" vertex="1" parent="35">
                    <mxGeometry x="165" y="387" width="120" height="90" as="geometry"/>
                </mxCell>
                <mxCell id="18" value="" style="rounded=1;whiteSpace=wrap;html=1;fillColor=#d5e8d4;strokeColor=#82b366;" vertex="1" parent="35">
                    <mxGeometry x="325" y="387" width="120" height="60" as="geometry"/>
                </mxCell>
                <mxCell id="19" value="" style="rounded=1;whiteSpace=wrap;html=1;fillColor=#d5e8d4;strokeColor=#82b366;" vertex="1" parent="35">
                    <mxGeometry x="485" y="387" width="120" height="60" as="geometry"/>
                </mxCell>
                <mxCell id="20" value="AdaptivePooling" style="rounded=1;whiteSpace=wrap;html=1;fillColor=#e1d5e7;strokeColor=#9673a6;" vertex="1" parent="35">
                    <mxGeometry x="15" y="402" width="100" height="25" as="geometry"/>
                </mxCell>
                <mxCell id="21" value="Conv2D" style="rounded=1;whiteSpace=wrap;html=1;fillColor=#e1d5e7;strokeColor=#9673a6;" vertex="1" parent="35">
                    <mxGeometry x="15" y="439.5" width="100" height="25" as="geometry"/>
                </mxCell>
                <mxCell id="22" value="&lt;b&gt;&lt;font style=&quot;font-size: 14px;&quot;&gt;Adaptive Capsule Routing&lt;/font&gt;&lt;/b&gt;" style="rounded=1;whiteSpace=wrap;html=1;fillColor=#fff2cc;strokeColor=#d6b656;" vertex="1" parent="35">
                    <mxGeometry x="15" y="557" width="600" height="30" as="geometry"/>
                </mxCell>
                <mxCell id="23" value="AdaptivePooling" style="rounded=1;whiteSpace=wrap;html=1;fillColor=#e1d5e7;strokeColor=#9673a6;" vertex="1" parent="35">
                    <mxGeometry x="175" y="397" width="100" height="25" as="geometry"/>
                </mxCell>
                <mxCell id="24" value="Channel Shuffle" style="rounded=1;whiteSpace=wrap;html=1;fillColor=#e1d5e7;strokeColor=#9673a6;" vertex="1" parent="35">
                    <mxGeometry x="175" y="439.5" width="100" height="25" as="geometry"/>
                </mxCell>
                <mxCell id="25" value="AdaptivePooling" style="rounded=1;whiteSpace=wrap;html=1;fillColor=#e1d5e7;strokeColor=#9673a6;" vertex="1" parent="35">
                    <mxGeometry x="335" y="404.5" width="100" height="25" as="geometry"/>
                </mxCell>
                <mxCell id="26" value="Conv2D" style="rounded=1;whiteSpace=wrap;html=1;fillColor=#e1d5e7;strokeColor=#9673a6;" vertex="1" parent="35">
                    <mxGeometry x="495" y="404.5" width="100" height="25" as="geometry"/>
                </mxCell>
                <mxCell id="11" style="edgeStyle=none;html=1;exitX=0.5;exitY=1;exitDx=0;exitDy=0;entryX=0.5;entryY=0;entryDx=0;entryDy=0;" edge="1" parent="35" source="2" target="3">
                    <mxGeometry relative="1" as="geometry"/>
                </mxCell>
                <mxCell id="31" value="" style="shape=flexArrow;endArrow=classic;html=1;exitX=0.5;exitY=1;exitDx=0;exitDy=0;entryX=0.5;entryY=0;entryDx=0;entryDy=0;fillColor=#dae8fc;strokeColor=#6c8ebf;" edge="1" parent="35" source="3" target="29">
                    <mxGeometry width="50" height="50" relative="1" as="geometry">
                        <mxPoint x="325" y="367" as="sourcePoint"/>
                        <mxPoint x="375" y="317" as="targetPoint"/>
                    </mxGeometry>
                </mxCell>
                <mxCell id="32" value="" style="shape=flexArrow;endArrow=classic;html=1;exitX=0.5;exitY=1;exitDx=0;exitDy=0;fillColor=#dae8fc;strokeColor=#6c8ebf;" edge="1" parent="35" source="29" target="22">
                    <mxGeometry width="50" height="50" relative="1" as="geometry">
                        <mxPoint x="325" y="337" as="sourcePoint"/>
                        <mxPoint x="325" y="382" as="targetPoint"/>
                    </mxGeometry>
                </mxCell>
                <mxCell id="33" value="&lt;b&gt;&lt;font style=&quot;font-size: 15px;&quot;&gt;Primary Capsule&lt;/font&gt;&lt;/b&gt;" style="text;html=1;strokeColor=none;fillColor=none;align=center;verticalAlign=middle;whiteSpace=wrap;rounded=0;" vertex="1" parent="35">
                    <mxGeometry x="465" y="477" width="150" height="30" as="geometry"/>
                </mxCell>
                <mxCell id="34" value="&lt;b&gt;&lt;font style=&quot;font-size: 15px;&quot;&gt;Back-bone&lt;/font&gt;&lt;/b&gt;" style="text;html=1;strokeColor=none;fillColor=none;align=center;verticalAlign=middle;whiteSpace=wrap;rounded=0;" vertex="1" parent="35">
                    <mxGeometry x="265" y="127" width="150" height="30" as="geometry"/>
                </mxCell>
            </root>
        </mxGraphModel>
    </diagram>
</mxfile>